# xmcd CD database file
#
# Track frame offsets:
#	150
#	19105
#	39042
#	58237
#	79845
#	99127
#	121377
#	140892
#	156865
#	177907
#	198122
#	220197
#	238417
#	261040
#
# Disc length: 3741 seconds
#
# Revision: 0
# Processed by: cddbd v1.5.2PL0 Copyright (c) Steve Scherf et al.
# Submitted via: CD2WAV32(JP) R3.22
#
DISCID=be0e9b0e
DTITLE=Various Artist - Vocal Best Songs Collection Disc 2
DYEAR=2007
DGENRE=Acapella
TTITLE0=世界で一番熱い夏
TTITLE1=My Revolution
TTITLE2=がんばれブロークン・ハート
TTITLE3=MOON
TTITLE4=８月の砂時計
TTITLE5=愛はいつも
TTITLE6=地図をください
TTITLE7=素直になりたい
TTITLE8=TAXI
TTITLE9=雨音はショパンの調べ
TTITLE10=Kisses
TTITLE11=虹をみたかい
TTITLE12=友達のまま
TTITLE13=うれしい！たのしい！大好き！
EXTD=
EXTT0=
EXTT1=
EXTT2=
EXTT3=
EXTT4=
EXTT5=
EXTT6=
EXTT7=
EXTT8=
EXTT9=
EXTT10=
EXTT11=
EXTT12=
EXTT13=
PLAYORDER=
